<?xml version="1.0" encoding="utf-8"?>
<!-- Generator: Adobe Illustrator 26.3.1, SVG Export Plug-In . SVG Version: 6.00 Build 0)  -->
<svg version="1.1" xmlns="http://www.w3.org/2000/svg" xmlns:xlink="http://www.w3.org/1999/xlink" x="0px" y="0px"
	 viewBox="0 0 592.9 592.9" style="enable-background:new 0 0 592.9 592.9;" xml:space="preserve">
<style type="text/css">
	.st0{fill:#F3EB48;}
</style>
<g id="Laag_2">
	<path class="st0" d="M392,214.9l-62.8,62.8V145.5C329.2,145.5,368.4,161.5,392,214.9z"/>
</g>
<g id="Laag_3">
	<path class="st0" d="M322.7,142.5v91.7L193,157.4C193,157.4,246.7,111.9,322.7,142.5z"/>
</g>
<g id="Laag_4">
	<path class="st0" d="M188.4,161.4l62.5,38.2L147.8,302.6C147.8,302.6,115.7,217.9,188.4,161.4z"/>
</g>
<g id="Laag_5">
	<path class="st0" d="M150.2,309.5l63.5-63.5l6.7,73L180.5,359C180.5,359,159.5,336.2,150.2,309.5z"/>
</g>
<g id="Laag_6">
	<path class="st0" d="M185.3,364.3c0,0,56.8,64.5,138.8,21l69.6,69.6l48.9-48.9l-79.2-79.2H222.1L185.3,364.3z"/>
</g>
<g id="Laag_7">
	<circle class="st0" cx="483.9" cy="494" r="40.2"/>
</g>
<g id="Laag_8">
	<path class="st0" d="M296.4,592.9c-79.2,0-153.6-30.8-209.6-86.8C30.8,450.1,0,375.6,0,296.4S30.8,142.8,86.8,86.8
		C142.8,30.8,217.3,0,296.4,0c79.2,0,153.6,30.8,209.6,86.8c56,56,86.8,130.4,86.8,209.6c0,53.9-14.6,106.6-42.2,152.6l-17.1-10.3
		c25.8-42.8,39.4-92,39.4-142.3C572.9,144,448.9,20,296.4,20S20,144,20,296.4c0,152.4,124,276.4,276.4,276.4
		c39.5,0,77.7-8.2,113.4-24.3c3.8-1.7,7.6-3.5,11.3-5.4c1.2-0.6,2.4-1.3,3.7-1.9l9.3,17.7c-1.3,0.7-2.6,1.4-3.9,2
		c-4,2-8.1,4-12.1,5.8C379.7,584.1,338.8,592.9,296.4,592.9z"/>
</g>
</svg>
